<svg width="64" height="64" viewBox="0 0 64 64" fill="none" xmlns="http://www.w3.org/2000/svg">
  <rect width="64" height="64" rx="12" fill="#3B82F6"/>
  <path d="M15 20C15 17.7909 16.7909 16 19 16H45C47.2091 16 49 17.7909 49 20V44C49 46.2091 47.2091 48 45 48H19C16.7909 48 15 46.2091 15 44V20Z" fill="white"/>
  <path d="M24.2308 28.1538C25.8687 28.1538 27.1923 26.8302 27.1923 25.1923C27.1923 23.5544 25.8687 22.2308 24.2308 22.2308C22.5929 22.2308 21.2692 23.5544 21.2692 25.1923C21.2692 26.8302 22.5929 28.1538 24.2308 28.1538Z" fill="#3B82F6"/>
  <path d="M40.7692 28.1538C42.4071 28.1538 43.7308 26.8302 43.7308 25.1923C43.7308 23.5544 42.4071 22.2308 40.7692 22.2308C39.1314 22.2308 37.8077 23.5544 37.8077 25.1923C37.8077 26.8302 39.1314 28.1538 40.7692 28.1538Z" fill="#3B82F6"/>
  <path d="M16 36C16 35.4477 16.4477 35 17 35H47C47.5523 35 48 35.4477 48 36C48 42.6274 42.6274 48 36 48H28C21.3726 48 16 42.6274 16 36Z" fill="#3B82F6"/>
</svg> 